# xmcd CD database file
#
# Track frame offsets:
#	150
#	12580
#	24180
#	36337
#	48032
#	62442
#	74060
#	87832
#	102417
#	120042
#	133070
#	146185
#	160417
#	175110
#	188375
#
# Disc length: 2711 seconds
#
# Revision: 0
# Processed by: cddbd v1.4PL0 Copyright (c) Steve Scherf et al.
# Submitted via: CDex 1.51
#
DISCID=c30a950f
DTITLE=Vicky - La Voz del Amor - Luis Arcaraz y Consuelo velazquez
DYEAR=1900
DGENRE=Español
TTITLE0=As de corazones
TTITLE1=Distancia
TTITLE2=Bonita
TTITLE3=Quinto patio
TTITLE4=Prisionero del mar
TTITLE5=El que pierde una mujer
TTITLE6=Viajera
TTITLE7=Sortilegio
TTITLE8=Besame mucho
TTITLE9=Amar y vivir
TTITLE10=Verdad amarga
TTITLE11=Aunque tengas razon
TTITLE12=Enamorada
TTITLE13=Corazon
TTITLE14=Franqueza
EXTD=
EXTT0=
EXTT1=
EXTT2=
EXTT3=
EXTT4=
EXTT5=
EXTT6=
EXTT7=
EXTT8=
EXTT9=
EXTT10=
EXTT11=
EXTT12=
EXTT13=
EXTT14=
PLAYORDER=
